<svg width="300" height="300" viewBox="0 0 300 300" fill="none" xmlns="http://www.w3.org/2000/svg">
<rect width="300" height="300" rx="40" fill="#18191F"/>
<g clip-path="url(#clip0_84_34)">
<path d="M70.6741 31.4838C88.9813 54.8715 109.479 60.1796 133.186 58.8262C152.042 57.7498 160.184 58.926 171.132 60.7849C180.287 62.3397 191.069 68.9743 195.27 72.9546C215.12 74.1259 238.934 77.2447 259.152 81.0866C257.796 87.1974 255.148 102.026 248.19 127.488C244.627 139.88 239.028 149.811 231.392 157.279C223.756 164.578 215.441 169.246 206.448 171.282C216.12 173.829 222.737 177.733 226.302 182.996C230.034 188.258 230.288 196.491 227.064 207.694L212.557 258.364H167.25L178.195 220.17C181.759 207.608 177.855 201.328 166.487 201.328H148.075C135.007 201.328 123.511 209.966 119.87 222.52L109.473 258.364H64.2383C69.0255 231.015 79.1298 192.037 95.6108 174.35C94.3697 183.574 94.677 192.282 96.2131 199.35C102.051 185.439 111.761 171.209 121.609 163.369C120.907 167.21 121.823 175.776 122.94 179.786C129.808 165.268 147.848 152.089 165.091 151.649C181.813 151.222 185.176 154.047 193.853 153.502C201.077 153.046 204.864 149.579 206.887 146.691C207.502 145.813 207.155 144.625 206.231 144.081C205.907 143.891 205.68 143.756 205.565 143.69C205.663 142.127 205.292 138.499 204.813 136.359C201.873 138.468 199.859 140.516 197.415 140.516C194.731 139.847 192.243 139.579 189.636 138.792C186.831 137.947 182.773 137.149 181.179 137.004C179.584 136.859 176.439 137.249 175.166 137.974C176.409 134.546 181.056 132.376 185.608 130.759C190.337 129.08 203.637 128.357 205.305 128.911C206.972 129.466 208.45 131.188 209.581 136.359C211.781 133.972 214.024 130.357 215.093 125.686C215.785 125.416 216.666 125.21 217.837 123.72C219.008 122.229 223.028 115.23 224.425 106.711C216.42 104.057 209.172 102.753 202.89 101.496C196.608 100.239 184.204 99.3563 182.087 99.2631C180.273 96.8879 175.944 92.0454 168.964 90.2762C161.983 88.5072 154.118 87.8552 147.602 88.3673C141.087 88.8795 139.159 89.5781 131.267 89.5781C118.506 89.5781 104.786 83.8057 97.061 79.3363C96.5956 89.5783 99.4811 96.5618 104.181 102.707C95.778 103.651 71.6192 72.0397 70.6741 31.4838Z" fill="white"/>
<path d="M153.383 100.944C154.96 100.666 164.371 98.3685 168.656 98.9035C171.45 99.2525 176.24 101.7 178.011 102.748C179.428 103.586 180.514 104.411 180.88 104.719C180.215 104.711 178.58 104.77 177.362 105.069C175.84 105.444 171.674 107.639 169.254 107.465C166.834 107.29 163.441 103.172 162.343 102.748C161.465 102.409 156.004 101.404 153.383 100.944Z" fill="white"/>
</g>
<defs>
<clipPath id="clip0_84_34">
<rect width="195.104" height="227.051" fill="white" transform="translate(64.2383 31.4838)"/>
</clipPath>
</defs>
</svg>
