<svg width="1150" height="200" viewBox="0 0 1150 200" fill="none" xmlns="http://www.w3.org/2000/svg">
<g clip-path="url(#clip0_3228_7612)">
<path fill-rule="evenodd" clip-rule="evenodd" d="M753.255 42.6692C798.764 41.1815 826.947 40.8097 837.804 41.5536C869.035 43.6365 880.487 60.7456 872.158 92.8812C867.697 109.841 862.342 128.364 856.096 148.449C845.983 180.584 825.311 197.62 794.08 199.554C784.561 200.149 775.117 200.149 765.748 199.554C749.686 198.512 737.639 193.305 729.608 183.932C721.726 174.559 719.495 162.731 722.916 148.449C723.808 144.283 724.924 139.671 726.263 134.613C727.75 129.406 729.088 124.644 730.278 120.33C731.468 115.866 733.103 110.064 735.185 102.923C737.267 95.7825 738.978 89.98 740.317 85.5167C741.804 80.9046 743.96 73.9118 746.786 64.5389C749.612 55.1662 751.768 47.8763 753.255 42.6692ZM764.187 142.87C759.874 157.599 763.666 164.963 775.564 164.963H793.856C805.753 164.963 813.785 157.599 817.949 142.87L830.665 98.4603C834.978 83.5827 831.185 76.1439 819.288 76.1439H783.371L764.187 142.87Z" fill="black"/>
<path d="M212.504 120.776L189.749 198.883H151.602L173.465 120.776L196.219 42.668H234.588L212.504 120.776Z" fill="black"/>
<path fill-rule="evenodd" clip-rule="evenodd" d="M329.466 42.668C337.943 42.668 345.007 43.3374 350.659 44.6763C356.31 45.8666 361.292 48.1731 365.605 51.5949C370.066 54.8679 373.041 59.4054 374.528 65.2074C376.015 70.8608 376.312 78.3741 375.42 87.7468C374.677 96.9709 372.446 107.981 368.728 120.776C364.266 136.546 359.507 149.49 354.451 159.606C349.543 169.723 343.817 177.682 337.273 183.484C330.878 189.287 323.963 193.304 316.527 195.535C309.239 197.767 300.316 198.883 289.757 198.883H212.57L234.433 120.776L257.41 42.668H329.466ZM257.41 179.245H258.525C261.648 173.591 264.92 169.798 268.341 167.864C271.91 165.781 275.926 164.739 280.387 164.739H298.011C304.555 164.739 309.76 162.581 313.627 158.267C317.493 153.952 320.84 147.109 323.666 137.736L333.481 103.592C336.074 94.6565 336.643 88.094 335.189 83.9053L334.896 83.109C333.307 79.0598 329.414 77.0353 323.219 77.0353H286.857L257.41 179.245Z" fill="black"/>
<path d="M515.2 74.1343C500.328 74.5806 484.043 74.804 466.345 74.804H440.021L427.974 116.982H428.867C434.072 108.204 441.211 103.815 450.283 103.815H458.091C473.856 103.815 488.43 103.889 501.815 104.038L492.892 134.165C479.358 134.314 464.783 134.389 449.167 134.389H422.844L414.367 164.739H441.583C459.132 164.739 475.12 164.962 489.546 165.408L479.953 198.883H365.289L387.151 120.776L410.128 42.668H524.123L515.2 74.1343Z" fill="black"/>
<path d="M574.225 133.942L575.564 132.827C577.2 127.322 578.835 123.007 580.471 119.883L622.633 42.668H649.403L646.726 133.942L648.288 132.827C649.181 129.405 651.04 125.09 653.865 119.883L696.25 42.668H741.09L647.619 198.883H617.28C617.28 183.113 617.205 174.186 617.056 172.103C617.056 169.871 617.206 160.052 617.503 142.646C617.949 125.091 618.247 113.857 618.395 108.948L617.056 110.063C615.867 115.122 614.454 119.288 612.818 122.561C601.515 144.282 587.015 169.723 569.317 198.883H538.085C535.706 142.646 534.367 90.5739 534.07 42.668H575.564L574.225 133.942Z" fill="black"/>
<path d="M906.184 178.575H907.299C910.422 172.922 913.471 169.054 916.445 166.971C919.42 164.888 923.063 163.846 927.376 163.846H955.485C965.3 163.846 975.19 164.069 985.154 164.516L975.339 198.883H861.121L883.206 120.776L905.96 42.668H945.223L906.184 178.575Z" fill="black"/>
<path d="M1140.41 75.9197C1125.83 76.366 1109.92 76.5886 1092.67 76.5886H1066.12L1053.18 121.891H1054.07C1059.58 112.221 1067.24 107.386 1077.05 107.386H1083.74C1097.28 107.386 1111.18 107.46 1125.46 107.609L1115.87 141.307C1101.14 141.455 1086.87 141.53 1073.04 141.53H1047.61L1031.1 198.883H991.836L1013.7 120.776L1036.67 42.668H1150L1140.41 75.9197Z" fill="black"/>
<path d="M5.64073 0C21.6861 20.4982 39.6513 25.1505 60.4292 23.9643C76.956 23.0209 84.0917 24.0518 93.6871 25.681C101.711 27.0437 111.161 32.8587 114.843 36.3472C132.241 37.3738 153.113 40.1073 170.833 43.4745C169.644 48.8304 167.323 61.8271 161.225 84.1434C158.102 95.0039 153.195 103.708 146.502 110.254C139.81 116.651 132.522 120.742 124.64 122.527C133.117 124.759 138.917 128.181 142.041 132.793C145.312 137.405 145.535 144.621 142.709 154.44L129.994 198.85H90.2853L99.8775 165.375C103.001 154.365 99.5801 148.861 89.6158 148.861H73.4787C62.0256 148.861 51.95 156.431 48.7582 167.434L39.646 198.85H0C4.19573 174.88 13.0517 140.717 27.4965 125.216C26.4088 133.3 26.6781 140.932 28.0244 147.127C33.1414 134.935 41.6514 122.463 50.2831 115.591C49.6677 118.958 50.4702 126.465 51.4495 129.98C57.4687 117.256 73.2801 105.705 88.3924 105.319C103.049 104.945 105.996 107.421 113.601 106.943C119.933 106.544 123.252 103.505 125.025 100.974C125.564 100.204 125.26 99.1627 124.45 98.6863C124.166 98.5195 123.967 98.4016 123.866 98.3435C123.952 96.9738 123.627 93.794 123.207 91.9178C120.63 93.7671 118.865 95.5613 116.723 95.5615C114.371 94.975 112.19 94.7406 109.905 94.051C107.447 93.3097 103.89 92.6108 102.493 92.4836C101.095 92.3565 98.3384 92.6982 97.2231 93.3335C98.3125 90.329 102.385 88.4274 106.375 87.0101C110.52 85.5381 122.176 84.9045 123.638 85.3907C125.099 85.877 126.395 87.3861 127.386 91.9178C129.314 89.8259 131.28 86.6577 132.217 82.5642C132.824 82.3268 133.596 82.1468 134.622 80.8409C135.648 79.5343 139.172 73.4 140.396 65.9334C133.38 63.6074 127.028 62.4643 121.522 61.3626C116.016 60.261 105.144 59.4871 103.289 59.4054C101.699 57.3236 97.905 53.0794 91.7868 51.5288C85.6685 49.9783 78.7751 49.4069 73.0648 49.8557C67.3543 50.3046 65.6645 50.9169 58.7476 50.9169C47.5634 50.9169 35.5385 45.8577 28.7676 41.9405C28.3597 50.9171 30.8887 57.0378 35.0082 62.4238C27.6431 63.2513 6.46903 35.5453 5.64073 0Z" fill="black"/>
<path d="M78.1328 60.8788C79.515 60.6348 87.7631 58.6212 91.5183 59.0901C93.9672 59.396 98.1655 61.541 99.7179 62.4596C100.959 63.1945 101.911 63.9174 102.232 64.1872C101.649 64.1799 100.216 64.2315 99.149 64.494C97.8151 64.8222 94.1637 66.7467 92.0428 66.5937C89.9218 66.4406 86.9477 62.8315 85.9856 62.4596C85.2155 62.1621 80.4297 61.2816 78.1328 60.8788Z" fill="black"/>
</g>
<defs>
<clipPath id="clip0_3228_7612">
<rect width="1150" height="200" fill="white"/>
</clipPath>
</defs>
</svg>
