<svg width="500" height="500" viewBox="0 0 500 500" fill="none" xmlns="http://www.w3.org/2000/svg">
<g clip-path="url(#clip0_84_6)">
<path d="M133.344 75.7115C160.267 110.105 190.41 117.911 225.273 115.921C253.003 114.338 264.976 116.068 281.076 118.801C294.539 121.088 310.395 130.845 316.573 136.698C345.765 138.42 380.786 143.007 410.518 148.657C408.523 157.643 404.629 179.45 394.397 216.894C389.157 235.117 380.924 249.722 369.693 260.705C358.465 271.438 346.237 278.303 333.012 281.298C347.235 285.043 356.967 290.784 362.208 298.523C367.697 306.261 368.071 318.369 363.329 334.844L341.995 409.359H275.368L291.463 353.192C296.704 334.718 290.964 325.483 274.245 325.483H247.169C227.952 325.483 211.046 338.185 205.691 356.646L190.401 409.359H123.88C130.92 369.14 145.779 311.818 170.016 285.81C168.191 299.374 168.643 312.179 170.902 322.574C179.487 302.117 193.766 281.19 208.249 269.66C207.217 275.309 208.563 287.905 210.206 293.803C220.306 272.454 246.835 253.072 272.192 252.425C296.784 251.797 301.729 255.952 314.489 255.15C325.114 254.48 330.683 249.381 333.658 245.134C334.562 243.842 334.052 242.095 332.693 241.296C332.216 241.016 331.882 240.818 331.713 240.721C331.857 238.422 331.312 233.087 330.607 229.939C326.283 233.042 323.322 236.052 319.728 236.053C315.781 235.069 312.122 234.675 308.288 233.518C304.164 232.274 298.195 231.102 295.851 230.888C293.506 230.675 288.88 231.248 287.009 232.314C288.837 227.273 295.67 224.082 302.365 221.704C309.32 219.235 328.877 218.171 331.33 218.987C333.782 219.803 335.956 222.335 337.619 229.939C340.854 226.429 344.153 221.113 345.725 214.245C346.743 213.846 348.039 213.544 349.76 211.353C351.482 209.161 357.395 198.868 359.448 186.34C347.676 182.437 337.018 180.519 327.78 178.671C318.541 176.823 300.299 175.524 297.187 175.387C294.519 171.894 288.153 164.773 277.888 162.171C267.622 159.569 256.055 158.611 246.474 159.364C236.893 160.117 234.057 161.144 222.452 161.144C203.686 161.144 183.509 152.655 172.149 146.083C171.464 161.145 175.708 171.414 182.62 180.451C170.262 181.84 134.734 135.352 133.344 75.7115Z" fill="#18191F"/>
<path d="M254.976 177.859C257.295 177.45 271.134 174.071 277.435 174.858C281.544 175.371 288.588 178.97 291.193 180.512C293.276 181.745 294.873 182.958 295.412 183.41C294.434 183.398 292.029 183.485 290.238 183.925C288 184.476 281.874 187.705 278.315 187.448C274.756 187.191 269.766 181.136 268.152 180.512C266.86 180.013 258.83 178.535 254.976 177.859Z" fill="#18191F"/>
</g>
<path d="M480 250C480 122.975 377.025 20 250 20C122.975 20 20 122.975 20 250C20 377.025 122.975 480 250 480V500C111.929 500 0 388.071 0 250C0 111.929 111.929 0 250 0C388.071 0 500 111.929 500 250C500 388.071 388.071 500 250 500V480C377.025 480 480 377.025 480 250Z" fill="#18191F"/>
<defs>
<clipPath id="clip0_84_6">
<rect width="286.918" height="333.899" fill="white" transform="translate(123.88 75.7115)"/>
</clipPath>
</defs>
</svg>
