<svg width="240" height="279" viewBox="0 0 240 279" fill="none" xmlns="http://www.w3.org/2000/svg">
<mask id="mask0_84_68" style="mask-type:luminance" maskUnits="userSpaceOnUse" x="0" y="0" width="240" height="279">
<path d="M239.098 0H0V278.249H239.098V0Z" fill="white"/>
</mask>
<g mask="url(#mask0_84_68)">
<path d="M7.88666 0C30.3225 28.6613 55.4417 35.1663 84.4942 33.508C107.603 32.1888 117.58 33.6305 130.997 35.908C142.216 37.8138 155.429 45.9447 160.577 50.8222C184.904 52.2572 214.088 56.0797 238.865 60.788C237.203 68.2763 233.958 86.4488 225.431 117.652C221.064 132.838 214.203 145.008 204.845 154.161C195.488 163.105 185.298 168.826 174.277 171.322C186.129 174.443 194.239 179.227 198.608 185.676C203.181 192.125 203.493 202.215 199.541 215.944L181.762 278.04H126.24L139.653 231.234C144.02 215.839 139.237 208.143 125.304 208.143H102.741C86.7267 208.143 72.6383 218.728 68.1758 234.112L55.4342 278.04H0C5.86667 244.524 18.2492 196.755 38.4467 175.081C36.9258 186.385 37.3025 197.056 39.185 205.719C46.3392 188.671 58.2383 171.232 70.3075 161.624C69.4475 166.331 70.5692 176.828 71.9383 181.743C80.355 163.951 102.463 147.8 123.593 147.261C144.087 146.738 148.208 150.2 158.841 149.531C167.695 148.974 172.336 144.725 174.815 141.186C175.568 140.109 175.143 138.653 174.011 137.987C173.613 137.754 173.335 137.589 173.194 137.507C173.314 135.592 172.86 131.146 172.273 128.523C168.669 131.109 166.202 133.617 163.207 133.618C159.917 132.797 156.868 132.47 153.673 131.506C150.237 130.469 145.263 129.492 143.309 129.314C141.355 129.136 137.501 129.614 135.941 130.502C137.464 126.301 143.158 123.642 148.737 121.66C154.533 119.602 170.831 118.716 172.875 119.396C174.918 120.076 176.73 122.186 178.116 128.523C180.812 125.598 183.561 121.168 184.871 115.445C185.719 115.112 186.799 114.86 188.233 113.035C189.668 111.208 194.596 102.63 196.307 92.1905C186.497 88.938 177.615 87.3397 169.917 85.7997C162.218 84.2588 147.017 83.1772 144.423 83.063C142.199 80.1522 136.894 74.218 128.34 72.0497C119.785 69.8813 110.147 69.0822 102.162 69.7105C94.1775 70.338 91.8142 71.1938 82.1433 71.1938C66.505 71.1938 49.6908 64.1197 40.2242 58.643C39.6533 71.1938 43.19 79.7522 48.95 87.283C38.6517 88.4405 9.045 49.7005 7.88666 0Z" fill="#18191F"/>
<path d="M109.247 85.123C111.179 84.7822 122.712 81.9663 127.963 82.6222C131.387 83.0497 137.257 86.0488 139.428 87.3338C141.163 88.3613 142.494 89.3722 142.943 89.7488C142.128 89.7388 140.124 89.8113 138.632 90.178C136.767 90.6372 131.662 93.328 128.696 93.1138C125.73 92.8997 121.572 87.8538 120.227 87.3338C119.15 86.918 112.458 85.6863 109.247 85.123Z" fill="#18191F"/>
</g>
</svg>
